<svg width="32" height="33" fill="none" xmlns="http://www.w3.org/2000/svg"><path d="M8.333 28.5h15.334A4.333 4.333 0 0 0 28 24.167V8.833A4.333 4.333 0 0 0 23.667 4.5H8.333A4.333 4.333 0 0 0 4 8.833v15.334A4.333 4.333 0 0 0 8.333 28.5Z" fill="#00C300"/><path d="M24.742 15.445c0-3.91-3.92-7.092-8.738-7.092s-8.739 3.182-8.739 7.092c0 3.505 3.109 6.441 7.308 6.996.285.062.672.188.77.431.088.22.058.567.028.79l-.124.748c-.038.22-.176.864.756.471.933-.392 5.032-2.963 6.866-5.074h-.001c1.267-1.388 1.874-2.798 1.874-4.362ZM12.583 17.77h-1.736a.458.458 0 0 1-.458-.458V13.84a.458.458 0 0 1 .916 0v3.014h1.278a.458.458 0 0 1 0 .917Zm1.796-.458a.459.459 0 0 1-.916 0V13.84a.458.458 0 0 1 .916 0v3.473Zm4.18 0a.456.456 0 0 1-.459.458.46.46 0 0 1-.366-.183l-1.78-2.423v2.148a.459.459 0 0 1-.917 0V13.84a.458.458 0 0 1 .825-.275l1.78 2.424V13.84a.459.459 0 0 1 .917 0v3.473Zm2.809-2.195a.46.46 0 0 1 0 .917H20.09v.82h1.278a.459.459 0 0 1 0 .916h-1.736a.459.459 0 0 1-.458-.458V13.84c0-.253.205-.458.458-.458h1.736a.459.459 0 0 1 0 .916H20.09v.82l1.278-.001Z" fill="#fff"/></svg>