<svg width="32" height="33" fill="none" xmlns="http://www.w3.org/2000/svg"><path d="m22.678 28.493-13.333.013c-2.934.003-5.336-2.395-5.339-5.328L3.993 9.845C3.991 6.91 6.388 4.509 9.321 4.506l13.334-.013c2.933-.002 5.335 2.395 5.338 5.328l.013 13.334c.003 2.934-2.395 5.336-5.328 5.338Z" fill="url(#a)"/><path d="m22.678 28.493-13.333.013c-2.934.003-5.336-2.395-5.339-5.328L3.993 9.845C3.991 6.91 6.388 4.509 9.321 4.506l13.334-.013c2.933-.002 5.335 2.395 5.338 5.328l.013 13.334c.003 2.934-2.395 5.336-5.328 5.338Z" fill="url(#b)"/><path d="M16 21.167a4.672 4.672 0 0 1-4.667-4.667A4.672 4.672 0 0 1 16 11.833a4.672 4.672 0 0 1 4.667 4.667A4.672 4.672 0 0 1 16 21.167Zm0-8a3.337 3.337 0 0 0-3.333 3.333A3.337 3.337 0 0 0 16 19.833a3.337 3.337 0 0 0 3.333-3.333A3.337 3.337 0 0 0 16 13.167ZM21 12.5a1 1 0 1 0 0-2 1 1 0 0 0 0 2Z" fill="#fff"/><path d="M20 25.167h-8A4.672 4.672 0 0 1 7.333 20.5v-8A4.672 4.672 0 0 1 12 7.833h8a4.672 4.672 0 0 1 4.667 4.667v8A4.672 4.672 0 0 1 20 25.167Zm-8-16A3.337 3.337 0 0 0 8.667 12.5v8A3.337 3.337 0 0 0 12 23.833h8a3.337 3.337 0 0 0 3.333-3.333v-8A3.337 3.337 0 0 0 20 9.167h-8Z" fill="#fff"/><defs><radialGradient id="a" cx="0" cy="0" r="1" gradientUnits="userSpaceOnUse" gradientTransform="translate(12.92 28.523) scale(29.9327)"><stop stop-color="#FD5"/><stop offset=".328" stop-color="#FF543F"/><stop offset=".348" stop-color="#FC5245"/><stop offset=".504" stop-color="#E64771"/><stop offset=".643" stop-color="#D53E91"/><stop offset=".761" stop-color="#CC39A4"/><stop offset=".841" stop-color="#C837AB"/></radialGradient><radialGradient id="b" cx="0" cy="0" r="1" gradientUnits="userSpaceOnUse" gradientTransform="matrix(19.8753 0 0 13.2429 7.857 4.194)"><stop stop-color="#4168C9"/><stop offset=".999" stop-color="#4168C9" stop-opacity="0"/></radialGradient></defs></svg>