<svg width="114" height="47" viewBox="0 0 114 47" fill="none" xmlns="http://www.w3.org/2000/svg">
<path d="M70.6875 23.4297C70.5781 21.7578 71.3516 20.9844 73.0078 21.1094H76.7812V19.75C76.7812 19.0469 77.1016 18.6953 77.7422 18.6953C78.3828 18.6953 78.7031 19.0469 78.7031 19.75V21.1094H83.0156C83.8594 21.1094 84.4688 21.2969 84.8438 21.6719C85.2344 22.0312 85.3984 22.6172 85.3359 23.4297V27.2266C85.3359 28.0547 85.1484 28.6641 84.7734 29.0547C84.4141 29.4297 83.8281 29.5859 83.0156 29.5234H78.8672C79.4766 30.5391 80.125 31.2969 80.8125 31.7969H80.8359C82.8828 30.875 84.5 29.9609 85.6875 29.0547C86.0312 28.7891 86.2812 28.6562 86.4375 28.6562C86.7969 28.6562 87.0547 28.7344 87.2109 28.8906C87.3672 29.0469 87.4453 29.3047 87.4453 29.6641C87.4453 30.2891 85.7578 31.2891 82.3828 32.6641V32.7578C83.9141 33.5391 85.5625 34.0234 87.3281 34.2109C88.2344 34.3047 88.6875 34.6172 88.6875 35.1484C88.6875 35.8203 88.3672 36.1562 87.7266 36.1562C86.8047 36.1562 85.5938 35.8984 84.0938 35.3828C80.7188 34.2422 78.3906 32.2891 77.1094 29.5234H72.5156V33.6484L77.9297 32.7344C78.1953 32.6875 78.3984 32.75 78.5391 32.9219C78.6953 33.0781 78.7734 33.3125 78.7734 33.625C78.7734 33.8281 78.7109 34 78.5859 34.1406C78.4609 34.2969 78.2891 34.3984 78.0703 34.4453C77.6172 34.5547 76.7656 34.7188 75.5156 34.9375C75.4219 34.9531 75.0781 35.0156 74.4844 35.125L68.7891 36.1094C68.4141 36.1094 68.1406 36.0234 67.9688 35.8516C67.7969 35.6953 67.7109 35.4453 67.7109 35.1016C67.7109 34.7266 67.8516 34.4688 68.1328 34.3281C68.2578 34.2812 68.5469 34.2109 69 34.1172C69.4688 34.0391 70.0312 33.9688 70.6875 33.9062V23.4297ZM67.2891 21.3438C67.2891 20.8906 67.7031 20.5391 68.5312 20.2891C71.8438 19.2422 74.5469 17.6641 76.6406 15.5547C76.9375 15.2578 77.1797 15.0391 77.3672 14.8984C77.5703 14.7578 77.7734 14.6875 77.9766 14.6875C78.3047 14.6875 78.5625 14.7734 78.75 14.9453C78.9375 15.1016 79.0312 15.2969 79.0312 15.5312C79.0312 15.625 78.9688 15.7812 78.8438 16C81.2656 17.9219 84.0156 19.2266 87.0938 19.9141C88.1719 20.1484 88.7109 20.5 88.7109 20.9688C88.7109 21.7344 88.3672 22.1172 87.6797 22.1172C86.7578 22.1172 85.2969 21.6406 83.2969 20.6875C81.2656 19.7344 79.3906 18.5703 77.6719 17.1953C76.1562 18.5078 74.375 19.7031 72.3281 20.7812C70.2656 21.875 68.9062 22.4219 68.25 22.4219C67.6094 22.4219 67.2891 22.0625 67.2891 21.3438ZM82.5938 27.8828C82.9531 27.8828 83.1953 27.8281 83.3203 27.7188C83.4453 27.5938 83.5078 27.3516 83.5078 26.9922V26.0547H72.5156V27.8828H82.5938ZM83.5078 24.4141V23.6875C83.5078 23.3281 83.4453 23.0859 83.3203 22.9609C83.1953 22.8203 82.9531 22.75 82.5938 22.75H73.4531C73.0938 22.75 72.8438 22.8203 72.7031 22.9609C72.5781 23.0859 72.5156 23.3281 72.5156 23.6875V24.4141H83.5078ZM100.078 29.0781C99.375 29.0938 99.0234 28.8203 99.0234 28.2578C99.0234 27.7109 99.4062 27.4375 100.172 27.4375L102.352 27.4844L104.93 27.4375V26.0547H101.648C100.977 26.0547 100.484 25.9062 100.172 25.6094C99.875 25.2969 99.75 24.8125 99.7969 24.1562V21.3203C99.7969 20.6641 99.9453 20.1875 100.242 19.8906C100.539 19.5781 101.008 19.4375 101.648 19.4688H104.93V18.3438H100.102C99.4922 18.3438 99.1875 18.0781 99.1875 17.5469C99.1875 17.0156 99.4922 16.75 100.102 16.75H104.93V15.6719C104.93 15.1562 105.195 14.8984 105.727 14.8984C106.273 14.8984 106.547 15.1562 106.547 15.6719V16.75H111.797C112.406 16.75 112.711 17.0156 112.711 17.5469C112.711 18.0781 112.406 18.3438 111.797 18.3438H106.547V19.4688H110.016C110.688 19.4688 111.172 19.6172 111.469 19.9141C111.781 20.2109 111.922 20.6797 111.891 21.3203V24.1562C111.891 24.7812 111.766 25.25 111.516 25.5625C111.266 25.875 110.867 26.0391 110.32 26.0547C110.586 26.2109 110.992 26.5703 111.539 27.1328C112.289 27.8516 112.664 28.3438 112.664 28.6094C112.664 29.1562 112.383 29.4297 111.82 29.4297C111.523 29.4297 111.188 29.1719 110.812 28.6562L110.648 28.4922C108.117 28.7109 104.594 28.9062 100.078 29.0781ZM91.2891 30.1094C91.2891 29.8438 91.4375 29.4922 91.7344 29.0547C93.125 27.0547 94.1094 24.8984 94.6875 22.5859H92.5078C91.7891 22.5859 91.4297 22.2969 91.4297 21.7188C91.4297 21.1406 91.7891 20.8516 92.5078 20.8516H94.8281V17.6172L94.1719 17.7109L92.2734 17.8984C91.9922 17.9141 91.7812 17.8438 91.6406 17.6875C91.5 17.5156 91.4297 17.2734 91.4297 16.9609C91.4297 16.6328 91.5547 16.4141 91.8047 16.3047C92.0234 16.2109 92.8125 16.0859 94.1719 15.9297C95.6875 15.7578 96.9453 15.5234 97.9453 15.2266L98.4141 15.1562C98.7109 15.1094 98.9375 15.1719 99.0938 15.3438C99.25 15.5156 99.3281 15.7656 99.3281 16.0938C99.3281 16.5312 99.0078 16.8281 98.3672 16.9844L96.5859 17.3594V20.8516H98.2734C98.9922 20.8516 99.3516 21.1484 99.3516 21.7422C99.3516 22.3047 98.9922 22.5859 98.2734 22.5859H96.5859V24.9062C96.7578 24.7344 96.9531 24.6484 97.1719 24.6484C97.4062 24.6484 97.7109 24.8594 98.0859 25.2812C98.8828 26.1875 99.2812 26.7656 99.2812 27.0156C99.2812 27.5312 99.0078 27.7891 98.4609 27.7891C98.1641 27.7891 97.8594 27.5391 97.5469 27.0391L96.7734 25.8906L96.5859 25.6328V35.3359C96.5859 35.9766 96.2891 36.2969 95.6953 36.2969C95.1172 36.2969 94.8281 35.9766 94.8281 35.3359V26.0078C93.7812 29.4297 92.8438 31.1406 92.0156 31.1406C91.5312 31.1406 91.2891 30.7969 91.2891 30.1094ZM98.0156 33.9531L99 30.9297C99.1406 30.4609 99.4141 30.2266 99.8203 30.2266C100.398 30.2266 100.688 30.4922 100.688 31.0234C100.688 31.4141 100.398 32.4453 99.8203 34.1172C99.6016 34.7422 99.2891 35.0547 98.8828 35.0547C98.2734 35.0547 97.9688 34.7812 97.9688 34.2344L98.0156 33.9531ZM101.414 23.9453C101.414 24.4297 101.656 24.6875 102.141 24.7188H104.93V23.3359H101.414V23.9453ZM104.93 22.0234V20.8047H102.141C101.656 20.8047 101.414 21.0547 101.414 21.5547V22.0234H104.93ZM102.07 30.4141C102.07 29.8203 102.344 29.5234 102.891 29.5234C103.453 29.5234 103.734 29.8203 103.734 30.4141V33.5078C103.734 33.9141 104.109 34.1172 104.859 34.1172H105.609C106.688 34.1172 107.305 34.0391 107.461 33.8828C107.648 33.6953 107.75 33.4844 107.766 33.25C107.844 32.2812 108.141 31.7969 108.656 31.7969C109.234 31.7969 109.523 32.1016 109.523 32.7109C109.523 33.9609 109.289 34.8047 108.82 35.2422C108.477 35.5703 107.352 35.7344 105.445 35.7344C104.102 35.7344 103.18 35.6328 102.68 35.4297C102.273 35.2422 102.07 34.8984 102.07 34.3984V30.4141ZM104.836 30.0625C104.836 29.5625 105.156 29.3125 105.797 29.3125C106.031 29.3125 106.359 29.5625 106.781 30.0625C107.25 30.625 107.484 31.0469 107.484 31.3281C107.484 31.8438 107.156 32.1016 106.5 32.1016C106.297 32.1016 105.969 31.7969 105.516 31.1875C105.062 30.5625 104.836 30.1875 104.836 30.0625ZM109.617 27.3438C109.305 27.0156 109.148 26.7734 109.148 26.6172C109.148 26.3672 109.266 26.1797 109.5 26.0547H106.547V27.3906L109.617 27.3438ZM109.5 24.7188C109.734 24.7188 109.914 24.6562 110.039 24.5312C110.18 24.3906 110.25 24.1953 110.25 23.9453V23.3359H106.547V24.7188H109.5ZM110.25 22.0234V21.5547C110.25 21.0859 110 20.8359 109.5 20.8047H106.547V22.0234H110.25ZM109.477 30.7422C109.477 30.2578 109.766 30.0156 110.344 30.0156C110.719 30.0156 111.195 30.5234 111.773 31.5391C112.336 32.5391 112.617 33.1953 112.617 33.5078C112.617 34.1016 112.305 34.3984 111.68 34.3984C111.258 34.3984 110.867 33.9688 110.508 33.1094L109.547 31.0469L109.477 30.7422Z" fill="black"/>
<path d="M18.0969 30.9984C18.4533 31.0777 33.9288 31.639 32.6634 38.9208C29.1627 38.8085 21.3485 37.0669 18.0969 30.9984ZM18.0969 30.9984L18.0969 14.8134" stroke="black"/>
<path d="M48.8718 31.0202C48.5154 31.0995 33.0399 31.6608 34.3053 38.9426C37.806 38.8304 45.6202 37.0887 48.8718 31.0202ZM48.8718 31.0202L48.8718 14.158" stroke="black"/>
<line y1="-0.5" x2="17.0889" y2="-0.5" transform="matrix(0.00648391 -0.999979 0.999994 0.00355818 33.9898 42.121)" stroke="black"/>
<path d="M33.6693 10.434C42.3561 22.8039 37.2888 24.9545 33.6693 25.1839C28.5009 24.5475 27.6246 21.8629 28.5522 18.75C29.3932 15.9278 31.7169 12.7534 33.6693 10.434ZM33.6693 10.434V4" stroke="black"/>
<path d="M31.8304 32.4629C33.7965 29.7811 33.9742 23.4742 18.9555 19.7009C19.2007 24.3456 22.1191 33.4007 31.8304 32.4629Z" stroke="black"/>
<path d="M35.2012 32.4629C33.235 29.7811 33.0574 23.4742 48.0761 19.7009C47.8308 24.3456 44.9125 33.4007 35.2012 32.4629Z" stroke="black"/>
<path fill-rule="evenodd" clip-rule="evenodd" d="M24.6069 0.232043C13.4593 1.23701 4.10485 5.15058 1.01069 10.1045C-1.44321 14.0342 0.416968 16.9392 8.29228 21.476L9.83855 22.3667L11.3908 34.1529C12.2448 40.6348 12.9495 46.0748 12.9571 46.2407C12.9646 46.4065 22.3213 46.5426 33.7497 46.5426C52.1983 46.5426 54.5656 46.4714 54.8573 45.9057C55.4343 44.7872 55.234 26.8137 54.6446 26.8137C54.3053 26.8137 54.1018 29.3322 54.0996 33.5578C54.0975 37.2672 53.9405 41.525 53.7505 43.0196L53.4058 45.7374H33.7291C22.9074 45.7374 14.0433 45.6013 14.0319 45.4354C14.02 45.2695 13.3235 39.8952 12.4835 33.493L10.9562 21.8525L9.39258 21.0207C8.53258 20.5629 6.549 19.297 4.98487 18.2067C1.5465 15.8106 0.569591 13.9251 1.5308 11.5391C3.74331 6.04522 13.6049 1.93477 26.7717 1.01838C40.2189 0.0830697 52.7379 2.16266 59.8858 6.51993C62.4306 8.07167 64.9278 11.2436 64.9278 12.9258C64.9278 14.9373 61.6534 18.6661 58.3493 20.4163C54.8995 22.2435 52.72 23.0486 51 21C50.1909 20.0357 49.5 19.5 49.5 20.2806C49.6426 20.4857 49.8498 20.7158 50 21C50.1762 21.3333 50.2978 21.7251 50.5 22C50.5 22 50.8695 22.4072 51 22.5C51.1591 22.6132 51.1919 22.5419 51.426 22.5929C53.5146 23.0862 57.7199 21.995 60.3377 20.2806C63.4335 18.2534 66 15.0094 66 13.1243C65.9995 11.0238 63.7631 7.84337 61.0776 6.12454C57.9087 4.09649 50.9822 1.67588 45.9851 0.849679C41.2451 0.0657566 30.0402 -0.257959 24.6069 0.232043ZM27.5836 2.03341C27.1371 2.11434 24.9451 2.39981 22.7126 2.66796C14.5255 3.65038 7.43498 6.33431 4.77163 9.45833C1.51943 13.2741 3.71517 17.1578 10.8057 20.1292L13.2412 21.1495L14.8649 32.5375L16.4885 43.9255L33.8579 44.0318L51.2279 44.1377L51.583 38.029C52.0901 29.3169 52.0305 25.2032 51.3973 25.2032C51.0899 25.2032 50.8555 26.3785 50.8545 27.921C50.8534 29.4159 50.6932 33.4922 50.4989 36.9801L50.1455 43.3216H33.8401H17.5347L15.9982 32.1486C15.1528 26.0032 14.3707 20.8584 14.2598 20.7155C14.1494 20.5721 13.022 20.058 11.7556 19.5728C7.43011 17.916 4.31105 15.1109 4.31105 12.8779C4.31105 11.1164 6.73789 8.51013 9.68971 7.10092C15.7368 4.21406 22.7618 2.96148 32.9958 2.94537C44.2256 2.92766 53.0009 4.79627 58.096 8.29029C60.7696 10.1235 61.9863 12.1592 61.4191 13.8502C60.499 16.5937 55.286 19.8732 52.6297 19.38C51.8032 19.2265 52.0228 19.3503 51.5 19C50.233 18.1504 50.1541 18.6496 51.1737 19.7319C52.1587 20.7783 53.7029 20.6366 55.4689 20.0383C59.7321 18.5928 63.23 14.4989 62.54 11.7618C61.6616 8.27862 54.6852 4.63803 45.839 3.04643C41.7977 2.31928 29.7062 1.6485 27.5836 2.03341Z" fill="#9B6024"/>
</svg>
