<svg xmlns="http://www.w3.org/2000/svg" width="116" height="47" fill="none"><path fill="#000" d="M78.888 17.536c1.872 2.832 6.48 4.944 10.176 5.76l-.048.312c-.864.264-1.488.768-1.608 1.536-3.672-1.344-7.08-4.056-8.952-7.296l.432-.312Zm.192.24c-2.568 3.024-6.744 6.384-11.928 8.136l-.216-.312c4.56-2.256 8.472-6 10.296-9.096l2.952.84c-.072.288-.384.432-1.104.432Zm-3.552 14.64c14.76 3.216 11.52 7.56 9.384 5.904-1.824-1.656-5.16-3.744-9.528-5.496l.144-.408Zm4.44-11.4s1.224.96 1.944 1.68c-.072.264-.312.384-.624.384H74.64l-.192-.696h4.488l1.032-1.368Zm3.432 3.912v.696H72.408v-.696H83.4Zm-10.176 2.208h-1.872V24.16l.072-.072 2.088.84h-.288v2.208Zm-2.28 9.84c1.224-.264 4.152-1.104 7.104-2.04l.096.336c-1.344.768-3.816 2.184-6.504 3.552l-.696-1.848Zm1.824-11.352.456.264v11.04l-1.824.768.6-.744c.48 1.104-.024 1.896-.408 2.16l-1.32-1.824c.912-.6 1.08-.792 1.08-1.224v-10.44h1.416ZM87.024 32.8c-.168.216-.384.312-.912.168-1.2.672-3.192 1.512-4.92 2.04l-.264-.312c1.344-.936 2.976-2.472 3.768-3.456l2.328 1.56Zm-4.8-7.872.96-1.008 2.04 1.536c-.12.168-.432.336-.84.384v5.952c-.024.192-.936.672-1.608.672h-.336v-7.536h-.216Zm1.224 5.976v.696H72.456v-.696h10.992Zm-.024-3.048v.72H72.456v-.72h10.968Zm12.6-1.44c4.536 1.968 3.024 5.064 1.536 3.792-.168-1.2-1.056-2.712-1.8-3.648l.264-.144Zm.12 11.976c0 .144-.6.576-1.488.576h-.288V19.432l1.776-.72v19.68Zm-.072-13.68c-.912 3.864-2.712 7.224-5.376 9.888l-.336-.288c1.872-2.736 3.096-6.48 3.744-9.984h1.968v.384Zm3.576-5.976c-.24.264-.672.264-1.296.072-1.8.696-4.824 1.488-7.464 1.896l-.12-.36c2.328-.84 5.184-2.376 6.576-3.408l2.304 1.8Zm-2.016 4.032s1.248 1.056 2.016 1.824c-.072.264-.312.384-.648.384h-7.992l-.192-.72h5.712l1.104-1.488Zm11.16 5.736c5.616 1.272 4.584 4.848 2.784 3.84-.456-1.248-1.92-2.784-3.024-3.648l.24-.192Zm-3.72 3.096c4.536 1.824 2.784 5.184 1.2 3.816 0-1.248-.744-2.736-1.464-3.648l.264-.168Zm-4.896 1.224c.576 2.232.168 3.888-.48 4.632-.432.504-1.416.624-1.752.048-.288-.504 0-1.08.504-1.44.648-.576 1.392-1.992 1.344-3.264l.384.024Zm3.912-.216c-.024.288-.264.504-.672.576v3.24c0 .312.072.384.888.384h2.232c.96 0 1.776-.024 2.064-.024.24-.024.36-.072.48-.24.192-.288.432-1.128.696-2.136h.288l.072 2.16c.528.216.672.384.672.72 0 .768-.768 1.008-4.392 1.008h-2.496c-1.896 0-2.232-.36-2.232-1.584v-4.368l2.4.264Zm5.664-.168c5.256 2.376 3.72 6.048 2.016 4.632-.168-1.464-1.32-3.312-2.28-4.44l.264-.192Zm-10.8-2.328c2.256.048 7.152-.048 12.288-.192l.024.432c-2.352.36-5.784.792-10.632 1.344-.168.288-.384.432-.624.48l-1.056-2.064Zm8.592-13.032c-.072.336-.24.552-.792.624v12.864h-1.776V16.84l2.568.24Zm3.624 1.104s1.296.96 2.088 1.68c-.048.264-.288.384-.6.384H99.192L99 19.552h11.064l1.104-1.368ZM109.632 22l.936-1.008 1.992 1.536c-.144.168-.48.336-.888.432v4.896c-.024.168-.912.576-1.512.576h-.288V22h-.24Zm1.056 5.088v.696h-9.48v-.696h9.48Zm0-2.52v.696h-9.48v-.696h9.48ZM102 28.384c0 .168-.768.552-1.488.552h-.264v-7.752l1.872.816h8.688v.696H102v5.688Z"/><path stroke="#000" d="M18.097 30.998c.356.08 15.832.641 14.566 7.923-3.5-.112-11.314-1.854-14.566-7.923Zm0 0V14.813M48.872 31.02c-.357.08-15.832.64-14.567 7.923 3.501-.113 11.315-1.854 14.567-7.923Zm0 0V14.158"/><path stroke="#000" d="M0-.5h17.089" transform="rotate(-89.628 38.192 3.955) skewX(.168)"/><path stroke="#000" d="M33.67 10.434c8.686 12.37 3.619 14.52 0 14.75-5.17-.637-6.045-3.321-5.118-6.434.841-2.822 3.165-5.997 5.117-8.316Zm0 0V4"/><path stroke="#000" d="M31.83 32.463c1.967-2.682 2.144-8.989-12.874-12.762.245 4.645 3.163 13.7 12.874 12.762Z"/><path stroke="#000" d="M35.201 32.463c-1.966-2.682-2.144-8.989 12.875-12.762-.245 4.645-3.163 13.7-12.875 12.762Z"/><path fill="#9B6024" fill-rule="evenodd" d="M24.607.232C13.459 1.237 4.105 5.151 1.01 10.105c-2.454 3.93-.594 6.834 7.281 11.371l1.547.89 1.552 11.787c.854 6.482 1.559 11.922 1.566 12.088.008.166 9.364.302 20.793.302 18.448 0 20.816-.072 21.107-.637.577-1.119.377-19.092-.212-19.092-.34 0-.543 2.518-.545 6.744-.003 3.71-.16 7.967-.35 9.462l-.344 2.717H33.729c-10.822 0-19.686-.136-19.697-.302-.012-.166-.709-5.54-1.549-11.942l-1.527-11.64-1.563-.832c-.86-.458-2.844-1.724-4.408-2.814C1.546 15.81.57 13.925 1.53 11.539 3.743 6.045 13.605 1.935 26.77 1.02c13.448-.936 25.967 1.144 33.115 5.5 2.545 1.553 5.042 4.725 5.042 6.407 0 2.011-3.275 5.74-6.579 7.49C54.9 22.244 52.72 23.05 51 21c-.81-.964-1.5-1.5-1.5-.72.143.206.35.436.5.72.176.333.298.725.5 1 0 0 .37.407.5.5.16.113.192.042.426.093 2.089.493 6.294-.598 8.912-2.312C63.434 18.253 66 15.009 66 13.124c0-2.1-2.237-5.28-4.922-7C57.908 4.097 50.982 1.677 45.985.85 41.245.066 30.04-.258 24.607.232Zm2.977 1.801c-.447.081-2.639.367-4.871.635-8.188.982-15.278 3.666-17.941 6.79-3.253 3.816-1.057 7.7 6.034 10.671l2.435 1.02 1.624 11.389 1.623 11.388 17.37.106 17.37.106.355-6.109c.507-8.712.448-12.826-.186-12.826-.307 0-.541 1.175-.542 2.718-.002 1.495-.162 5.571-.356 9.06l-.354 6.34h-32.61L15.998 32.15c-.845-6.146-1.627-11.29-1.738-11.434-.11-.143-1.238-.657-2.504-1.142C7.43 17.916 4.31 15.11 4.31 12.878c0-1.762 2.427-4.368 5.379-5.777 6.047-2.887 13.072-4.14 23.306-4.156C44.226 2.928 53 4.796 58.096 8.29c2.674 1.834 3.89 3.87 3.323 5.56-.92 2.744-6.133 6.023-8.79 5.53-.826-.153-.606-.03-1.129-.38-1.267-.85-1.346-.35-.326.732.985 1.046 2.529.905 4.295.306 4.263-1.445 7.761-5.54 7.071-8.276-.878-3.483-7.855-7.124-16.701-8.716-4.041-.727-16.133-1.397-18.255-1.013Z" clip-rule="evenodd"/></svg>